<svg width="20" height="18" viewBox="0 0 20 18" fill="none" xmlns="http://www.w3.org/2000/svg">
<path d="M2.71016 0.293669C2.61706 0.200564 2.50653 0.12671 2.38488 0.0763221C2.26323 0.0259343 2.13285 0 2.00118 0C1.86951 0 1.73913 0.0259343 1.61749 0.0763221C1.49584 0.12671 1.38531 0.200564 1.2922 0.293669C1.10417 0.481702 0.998535 0.736729 0.998535 1.00265C0.998535 1.26857 1.10417 1.52359 1.2922 1.71163L6.91411 7.33353C6.55842 7.9952 6.4254 8.75386 6.53474 9.49706C6.64409 10.2403 6.98999 10.9285 7.52117 11.4597C8.05236 11.9908 8.74055 12.3367 9.48376 12.4461C10.227 12.5554 10.9856 12.4224 11.6473 12.0667L17.2692 17.6886C17.362 17.7822 17.4725 17.8565 17.5941 17.9072C17.7158 17.9579 17.8464 17.984 17.9782 17.984C18.11 17.984 18.2405 17.9579 18.3622 17.9072C18.4839 17.8565 18.5943 17.7822 18.6872 17.6886C18.7807 17.5958 18.855 17.4853 18.9057 17.3637C18.9564 17.242 18.9825 17.1115 18.9825 16.9796C18.9825 16.8478 18.9564 16.7173 18.9057 16.5956C18.855 16.4739 18.7807 16.3635 18.6872 16.2707L2.71016 0.293669ZM9.98968 10.489C9.59243 10.489 9.21144 10.3312 8.93054 10.0503C8.64964 9.76938 8.49184 9.3884 8.49184 8.99114C8.49184 8.99114 8.49184 8.94121 8.49184 8.92124L10.0496 10.479L9.98968 10.489Z" fill="#231F20"/>
<path d="M10.2093 13.9838C5.91546 14.0837 3.09951 10.399 2.22078 8.991C2.84635 7.99313 3.59816 7.08022 4.45755 6.27492L2.99965 4.86694C1.8726 5.92888 0.907077 7.15009 0.133782 8.49172C0.0461399 8.64352 0 8.81572 0 8.991C0 9.16629 0.0461399 9.33848 0.133782 9.49029C0.762876 10.5787 4.12803 15.9809 10.0096 15.9809H10.2592C11.3652 15.9481 12.4568 15.7217 13.4846 15.3119L11.9068 13.7342C11.352 13.8801 10.7826 13.9639 10.2093 13.9838Z" fill="#231F20"/>
<path d="M19.8454 8.49174C19.2063 7.38334 15.6814 1.82134 9.71998 2.00109C8.61403 2.03389 7.52239 2.26033 6.49463 2.67012L8.07236 4.24785C8.62719 4.10189 9.19655 4.01816 9.76991 3.99821C14.0537 3.88837 16.8697 7.58305 17.7584 8.99102C17.1174 9.99187 16.3487 10.9049 15.4717 11.7071L16.9795 13.1151C18.1207 12.0559 19.0998 10.8346 19.8853 9.4903C19.967 9.33502 20.0063 9.16096 19.9993 8.98566C19.9923 8.81036 19.9392 8.64 19.8454 8.49174V8.49174Z" fill="#231F20"/>
</svg>
