<svg width="20" height="14" viewBox="0 0 20 14" fill="none" xmlns="http://www.w3.org/2000/svg">
<path d="M19.8661 6.50168C19.2263 5.39212 15.7077 -0.175664 9.73011 0.00426438C4.2023 0.144209 1.00358 5.00228 0.133921 6.50168C0.046188 6.65364 0 6.82602 0 7.00148C0 7.17695 0.046188 7.34933 0.133921 7.50128C0.763671 8.59085 4.13233 13.9987 10.02 13.9987H10.2699C15.7977 13.8588 19.0064 9.00069 19.8661 7.50128C19.9538 7.34933 20 7.17695 20 7.00148C20 6.82602 19.9538 6.65364 19.8661 6.50168V6.50168ZM10.2199 11.9995C5.91163 12.0995 3.10274 8.41092 2.22309 7.00148C3.22269 5.39212 5.83166 2.10343 9.83007 2.00347C14.1184 1.89351 16.9372 5.59204 17.8269 7.00148C16.7973 8.61084 14.2183 11.8995 10.2199 11.9995V11.9995Z" fill="#231F20"/>
<path d="M10.0001 3.50269C9.30812 3.50269 8.6317 3.70788 8.05635 4.09231C7.48101 4.47674 7.03258 5.02315 6.76778 5.66244C6.50298 6.30172 6.4337 7.00518 6.56869 7.68384C6.70369 8.3625 7.0369 8.9859 7.52619 9.47519C8.01548 9.96447 8.63887 10.2977 9.31753 10.4327C9.99619 10.5677 10.6996 10.4984 11.3389 10.2336C11.9782 9.96879 12.5246 9.52036 12.9091 8.94502C13.2935 8.36968 13.4987 7.69325 13.4987 7.00129C13.4987 6.07341 13.1301 5.18352 12.474 4.5274C11.8178 3.87129 10.928 3.50269 10.0001 3.50269V3.50269ZM10.0001 8.5007C9.70352 8.5007 9.41363 8.41276 9.16705 8.248C8.92048 8.08325 8.72829 7.84907 8.61481 7.57509C8.50132 7.30111 8.47163 6.99963 8.52948 6.70878C8.58734 6.41792 8.73014 6.15075 8.93984 5.94106C9.14953 5.73136 9.4167 5.58856 9.70756 5.5307C9.99841 5.47285 10.2999 5.50254 10.5739 5.61603C10.8479 5.72951 11.082 5.9217 11.2468 6.16827C11.4115 6.41485 11.4995 6.70474 11.4995 7.00129C11.4995 7.39896 11.3415 7.78034 11.0603 8.06153C10.7791 8.34273 10.3977 8.5007 10.0001 8.5007Z" fill="#231F20"/>
</svg>
