<svg width="62" height="32" viewBox="0 0 62 32" fill="none" xmlns="http://www.w3.org/2000/svg">
<path d="M48.9394 13.7087C50.2892 14.0519 55.3269 15.1174 60.5632 13.4901C61.2768 13.2687 61.7364 14.2332 61.1153 14.6387C57.3737 17.0561 52.6962 19.2716 48.5957 19.8292C42.1724 20.6996 47.0775 15.1963 48.328 13.8886C48.4052 13.8075 48.5023 13.7482 48.6097 13.7166C48.717 13.6851 48.8307 13.6823 48.9394 13.7087Z" fill="#043730"/>
<path d="M48.7699 11.7076C49.5538 11.911 52.9298 12.6555 56.3015 11.3977C56.3708 11.3738 56.4464 11.3758 56.5144 11.4032C56.5824 11.4307 56.6383 11.4817 56.6718 11.5471C56.7053 11.6124 56.7142 11.6877 56.6969 11.7591C56.6796 11.8305 56.6372 11.8933 56.5776 11.936C54.2699 13.5038 51.239 15.0121 48.5988 15.3691C44.7067 15.8963 47.7886 12.5033 48.4718 11.7907C48.5096 11.7514 48.5571 11.723 48.6096 11.7084C48.662 11.6938 48.7173 11.6936 48.7699 11.7076Z" fill="#043730"/>
<path d="M49.4932 16.5622C49.493 19.9209 48.4002 23.1879 46.3805 25.8675C44.3607 28.5471 41.5243 30.493 38.3016 31.41C35.0789 32.3269 31.6459 32.1649 28.5233 30.9485C25.4008 29.7321 22.7592 27.5277 20.9994 24.6698C20.7694 24.3007 20.5546 23.917 20.3549 23.5184C19.2675 21.3619 18.7024 18.9787 18.7056 16.5622C18.7056 16.1443 18.7221 15.7291 18.7553 15.3168C20.0852 13.9634 21.4996 12.6961 22.9896 11.5224C26.7496 8.57955 30.9055 6.18407 35.3339 4.407C36.9763 3.74002 38.7278 3.12147 40.5938 2.56934C42.334 3.38235 43.9073 4.51436 45.2326 5.90702C45.2657 5.943 45.3002 5.97759 45.3319 6.01357C46.8542 7.63854 48.0061 9.57581 48.7078 11.6912C48.9356 12.374 49.1141 13.0723 49.242 13.7808C49.3294 14.254 49.3933 14.7342 49.4338 15.2213C49.4734 15.6641 49.4932 16.111 49.4932 16.5622Z" fill="#043730"/>
<path d="M46.2884 16.5621C46.2875 19.3191 45.3569 21.9947 43.6479 24.1544C41.9388 26.3142 39.5516 27.8311 36.8741 28.4588C34.1966 29.0865 31.3861 28.7882 28.899 27.6122C26.412 26.4362 24.3946 24.4517 23.1745 21.981C22.9788 21.5876 22.8055 21.1834 22.6556 20.7702C21.5583 17.7634 21.6787 14.4455 22.991 11.5266C26.7503 8.58234 30.9057 6.18546 35.3339 4.40698C37.8438 4.65899 40.2127 5.68983 42.1106 7.35583L42.1216 7.36551C43.4101 8.49159 44.447 9.87766 45.1646 11.4331C45.8821 12.9885 46.2641 14.6783 46.2856 16.3919C46.2884 16.4459 46.2884 16.504 46.2884 16.5621Z" fill="#F5F7F7"/>
<path d="M46.2884 16.5621C46.2875 19.3191 45.3569 21.9947 43.6479 24.1544C41.9388 26.3142 39.5516 27.8311 36.8741 28.4588C34.1966 29.0865 31.3861 28.7882 28.899 27.6122C26.412 26.4362 24.3946 24.4517 23.1745 21.981C22.9788 21.5876 22.8055 21.1834 22.6556 20.7702C21.5583 17.7634 21.6787 14.4455 22.991 11.5266C26.7503 8.58234 30.9057 6.18546 35.3339 4.40698C37.8438 4.65899 40.2127 5.68983 42.1106 7.35583L42.1216 7.36551C43.4101 8.49159 44.447 9.87766 45.1646 11.4331C45.8821 12.9885 46.2641 14.6783 46.2856 16.3919C46.2884 16.4459 46.2884 16.504 46.2884 16.5621Z" fill="url(#paint0_linear_35_1500)"/>
<path d="M34.0997 22.9842C37.6373 22.9842 40.5051 20.1089 40.5051 16.562C40.5051 13.0152 37.6373 10.1399 34.0997 10.1399C30.5621 10.1399 27.6943 13.0152 27.6943 16.562C27.6943 20.1089 30.5621 22.9842 34.0997 22.9842Z" fill="black"/>
<path d="M56.4823 2.37806C52.6948 3.35901 48.971 4.5721 45.3318 6.01049C44.2682 6.43208 43.1981 6.88274 42.1215 7.36245C40.0733 8.27575 38.0196 9.29975 36.0032 10.4303C33.0901 12.0524 30.3198 13.9199 27.7221 16.0125C25.9186 17.4704 24.2259 19.0611 22.6583 20.7713C21.8532 21.6514 21.0867 22.5675 20.3589 23.5195C19.4042 24.7688 18.5284 26.0767 17.7366 27.4356C17.4125 27.9932 16.9466 28.4545 16.3865 28.7725C15.8264 29.0905 15.1921 29.2538 14.5485 29.2456C13.9049 29.2374 13.2749 29.0582 12.723 28.7261C12.1711 28.394 11.717 27.921 11.4071 27.3554C8.40658 21.9254 3.81336 16.786 0.442966 13.4027C-0.691539 12.2624 0.536818 10.3791 2.03431 10.9644C4.88989 12.0798 7.4584 13.7472 11.3243 16.9507C14.1371 19.2824 15.5794 18.6638 17.6427 16.5079C17.996 16.1384 18.3563 15.7343 18.7551 15.3247C20.0851 13.9714 21.4994 12.7041 22.9895 11.5304C26.7491 8.58511 30.9049 6.18729 35.3338 4.40807C36.9762 3.74109 38.7277 3.12254 40.5937 2.57041C45.0875 1.24059 50.2425 0.298234 56.1193 0.00210383C57.5685 -0.0753881 57.8873 2.01136 56.4823 2.37806Z" fill="#043730"/>
<rect x="35" y="13" width="8" height="3" rx="1.5" fill="white"/>
<defs>
<linearGradient id="paint0_linear_35_1500" x1="21.9116" y1="5.3819" x2="47.9231" y2="26.7939" gradientUnits="userSpaceOnUse">
<stop stop-color="#FFD653"/>
<stop offset="1" stop-color="#EF4B23"/>
</linearGradient>
</defs>
</svg>
