<svg width="26" height="20" viewBox="0 0 26 20" fill="none" xmlns="http://www.w3.org/2000/svg">
<path d="M2.78008 12.3265L2.75287 12.2993L2.53518 13.7143C2.48076 13.9864 2.39913 14.2585 2.29028 14.5034L0.575997 18.1224C0.331099 18.6667 0.548786 19.3197 1.093 19.5918C1.25627 19.6735 1.39232 19.7007 1.55559 19.7007C1.96375 19.7007 2.37192 19.4558 2.56239 19.0748L4.27668 15.4286C4.46715 15.0204 4.60321 14.6122 4.68484 14.1497C4.54879 14.0408 4.43994 13.9048 4.30389 13.7687C3.62362 13.1156 2.88892 12.4082 2.78008 12.3265Z" fill="#D6DBDB"/>
<path d="M10.8072 8.65306L9.88204 8.02721C9.36504 7.67347 8.90245 7.2653 8.5215 6.77551C7.21538 5.08843 6.88885 4.89796 6.42626 4.87074L4.92966 4.7619C4.60313 4.73469 4.2766 4.87074 3.56912 5.2517C2.29021 5.93197 1.25619 6.96598 0.548709 8.24489L0.113335 9.06122C-0.131563 9.49659 0.0317021 10.068 0.494287 10.3129C0.630342 10.3946 0.793607 10.4218 0.929661 10.4218C1.25619 10.4218 1.58272 10.2585 1.74599 9.93197L2.18136 9.11564C2.48068 8.54421 2.88884 8.05442 3.37864 7.61904C3.29701 8.2721 3.21538 9.03401 3.16095 9.49659C3.05211 10.4218 2.86163 11.0748 3.46027 11.6463C3.67796 11.8639 6.34463 14.449 6.34463 14.449C6.61674 14.7211 6.83442 15.0748 6.91606 15.4558L7.73238 18.8571C7.86844 19.3469 8.30381 19.7007 8.79361 19.7007C8.87524 19.7007 8.95687 19.7007 9.06572 19.6735C9.66436 19.5374 10.0181 18.9388 9.88204 18.3401L9.06572 14.9388C8.87524 14.1497 8.46708 13.4422 7.89565 12.8707L6.48068 11.483L7.21538 8C7.70517 8.62585 8.2766 9.14285 8.95687 9.57823L9.88204 10.2041C10.3174 10.4762 10.8616 10.3673 11.161 9.93197C11.3514 9.49659 11.2426 8.92517 10.8072 8.65306Z" fill="#D6DBDB"/>
<path d="M7.98076 2.54176C8.10271 1.4213 7.29326 0.414125 6.1728 0.292172C5.05234 0.170218 4.04516 0.979669 3.92321 2.10013C3.80126 3.22059 4.61071 4.22777 5.73117 4.34972C6.85163 4.47168 7.85881 3.66223 7.98076 2.54176Z" fill="#D6DBDB"/>
<path d="M25.0658 0H13.6373C13.2019 0 12.8754 0.353742 12.8754 0.761905V8.81633H17.4468V7.45578C17.4468 6.9932 17.9638 6.72109 18.3447 7.02041L21.6917 9.55102C21.991 9.76871 21.991 10.2313 21.6917 10.449L18.3447 12.9796C17.9638 13.2517 17.4468 13.0068 17.4468 12.5442V11.1837H12.8481V19.2381C12.8481 19.6735 13.2019 20 13.61 20H25.0386C25.474 20 25.8005 19.6463 25.8005 19.2381V0.761905C25.8277 0.353742 25.474 0 25.0658 0Z" fill="#D6DBDB"/>
</svg>
