<svg xmlns="http://www.w3.org/2000/svg" data-name="Layer 1" viewBox="0 0 64 64"><path d="M9,14V62H49.9A3,3,0,0,0,53,59V56h3a1,1,0,0,0,1-1V9a7,7,0,0,0-7-7H9.72a6,6,0,0,0,0,10H49a5.8,5.8,0,0,1-2.63-4H47.8A3.07,3.07,0,0,1,51,10.93V59a1,1,0,0,1-1.1,1H49V14ZM47.8,6H46.37a6,6,0,0,1,.72-2H50a5,5,0,0,1,5,5V54H53V10.93A5.07,5.07,0,0,0,47.8,6ZM14,19h3V16a1,1,0,0,1,2,0v3h3a1,1,0,0,1,0,2H19v3a1,1,0,0,1-2,0V21H14a1,1,0,0,1,0-2Zm-1,8H29a1,1,0,0,1,0,2H13a1,1,0,0,1,0-2ZM43,56H13a1,1,0,0,1,0-2H43a1,1,0,0,1,0,2Zm0-9H13a1,1,0,0,1,0-2H43a1,1,0,0,1,0,2Zm0-9H13a1,1,0,0,1,0-2H43a1,1,0,0,1,0,2Z" fill="#B5BEBD"/></svg>