<svg width="18" height="17" viewBox="0 0 18 17" fill="none" xmlns="http://www.w3.org/2000/svg">
<path d="M16.1239 1.30737H14.2292V2.06525C14.2292 2.7284 13.6798 3.27787 13.0166 3.27787C12.3535 3.27787 11.804 2.74735 11.804 2.06525V1.30737H6.21463V2.06525C6.21463 2.7284 5.68411 3.27787 5.00202 3.27787C4.33887 3.27787 3.78941 2.74735 3.78941 2.06525V1.30737H1.8947C0.852617 1.30737 0 2.15999 0 3.20208V14.2293C0 15.2713 0.852617 16.124 1.8947 16.124H16.105C17.1471 16.124 17.9997 15.2713 17.9997 14.2293V3.20208C18.0186 2.15999 17.166 1.30737 16.1239 1.30737ZM16.9765 14.2293C16.9765 14.7029 16.5976 15.0819 16.1239 15.0819H1.91365C1.43998 15.0819 1.06103 14.7029 1.06103 14.2293V5.45678H16.9765V14.2293Z" fill="#B5BEBD"/>
<path d="M5.0209 2.59574C5.3051 2.59574 5.53247 2.36838 5.53247 2.08417V0.51157C5.53247 0.227364 5.3051 0 5.0209 0C4.73669 0 4.50933 0.227364 4.50933 0.51157V2.08417C4.49038 2.36838 4.73669 2.59574 5.0209 2.59574Z" fill="#B5BEBD"/>
<path d="M13.0165 2.59574C13.3007 2.59574 13.528 2.36838 13.528 2.08417V0.51157C13.528 0.227364 13.3007 0 13.0165 0C12.7322 0 12.5049 0.227364 12.5049 0.51157V2.08417C12.5049 2.36838 12.7322 2.59574 13.0165 2.59574Z" fill="#B5BEBD"/>
</svg>
