<svg width="14" height="14" viewBox="0 0 14 14" fill="none" xmlns="http://www.w3.org/2000/svg">
<path d="M4.66667 0H1.55556C1.143 0 0.747335 0.163888 0.455612 0.455612C0.163888 0.747335 0 1.143 0 1.55556V4.66667C0 5.07923 0.163888 5.47489 0.455612 5.76661C0.747335 6.05833 1.143 6.22222 1.55556 6.22222H4.66667C5.07923 6.22222 5.47489 6.05833 5.76661 5.76661C6.05833 5.47489 6.22222 5.07923 6.22222 4.66667V1.55556C6.22222 1.143 6.05833 0.747335 5.76661 0.455612C5.47489 0.163888 5.07923 0 4.66667 0Z" fill="#B5BEBD"/>
<path d="M12.4445 0H9.33339C8.92083 0 8.52517 0.163888 8.23344 0.455612C7.94172 0.747335 7.77783 1.143 7.77783 1.55556V4.66667C7.77783 5.07923 7.94172 5.47489 8.23344 5.76661C8.52517 6.05833 8.92083 6.22222 9.33339 6.22222H12.4445C12.8571 6.22222 13.2527 6.05833 13.5444 5.76661C13.8362 5.47489 14.0001 5.07923 14.0001 4.66667V1.55556C14.0001 1.143 13.8362 0.747335 13.5444 0.455612C13.2527 0.163888 12.8571 0 12.4445 0Z" fill="#B5BEBD"/>
<path d="M4.66667 7.77759H1.55556C1.143 7.77759 0.747335 7.94148 0.455612 8.2332C0.163888 8.52492 0 8.92058 0 9.33314V12.4443C0 12.8568 0.163888 13.2525 0.455612 13.5442C0.747335 13.8359 1.143 13.9998 1.55556 13.9998H4.66667C5.07923 13.9998 5.47489 13.8359 5.76661 13.5442C6.05833 13.2525 6.22222 12.8568 6.22222 12.4443V9.33314C6.22222 8.92058 6.05833 8.52492 5.76661 8.2332C5.47489 7.94148 5.07923 7.77759 4.66667 7.77759Z" fill="#B5BEBD"/>
<path d="M12.4445 7.77759H9.33339C8.92083 7.77759 8.52517 7.94148 8.23344 8.2332C7.94172 8.52492 7.77783 8.92058 7.77783 9.33314V12.4443C7.77783 12.8568 7.94172 13.2525 8.23344 13.5442C8.52517 13.8359 8.92083 13.9998 9.33339 13.9998H12.4445C12.8571 13.9998 13.2527 13.8359 13.5444 13.5442C13.8362 13.2525 14.0001 12.8568 14.0001 12.4443V9.33314C14.0001 8.92058 13.8362 8.52492 13.5444 8.2332C13.2527 7.94148 12.8571 7.77759 12.4445 7.77759Z" fill="#B5BEBD"/>
</svg>
